<svg id="Icon" xmlns="http://www.w3.org/2000/svg" width="38" height="34.06" viewBox="0 0 38 34.06">
  <defs>
    <style>
      .cls-1 {
        fill: #3232ac;
        fill-rule: evenodd;
      }
    </style>
  </defs>
  <g id="Group">
    <g id="Group-2" data-name="Group">
      <path id="Vector" class="cls-1" d="M1137.7,1553.28a10.925,10.925,0,0,0-5.9,1.74c-0.34.19-2.91,1.72-2.51,4.51a5.4,5.4,0,0,0,1.17,2.44,4.969,4.969,0,0,1,1.22,3.86c-0.01,0-.02-0.01-0.03-0.01a2.189,2.189,0,0,0-2.92.86,2.806,2.806,0,0,0-.65-0.48,2.683,2.683,0,0,0-1.32-.32,4.676,4.676,0,0,1,0-.92,5.96,5.96,0,0,0-.02-1.39,4.256,4.256,0,0,0-1.94-3.03,5.543,5.543,0,0,0-4.59-.67,5.461,5.461,0,0,0-2.32,8.92,1.642,1.642,0,0,1,.46,1.19,10.451,10.451,0,0,0,.48,3.59,10.023,10.023,0,0,0,4.88,5.8,9.747,9.747,0,0,0,4.63,1.18,9.6,9.6,0,0,0,2.8-.42,9.97,9.97,0,0,0,1.48-.6,6.136,6.136,0,0,0,2.88-3.12,6.343,6.343,0,0,0,.49-2.39,2.1,2.1,0,0,0,1.08-.07,2.318,2.318,0,0,0,1.43-2.89l-0.57-1.88a3.735,3.735,0,0,0-2.56-2.54,3.575,3.575,0,0,0-2.33.13,6.539,6.539,0,0,0-1.38-5.7,4.088,4.088,0,0,1-.9-1.77c-0.27-1.83,1.67-2.9,1.76-2.94a0.219,0.219,0,0,1,.05-0.03,9.42,9.42,0,0,1,5.13-1.53,10.129,10.129,0,0,1,9.84,10.37c0,6.28-4.8,11.55-8.83,14.87a50.077,50.077,0,0,1-8.69,5.69,51.144,51.144,0,0,1-8.24-5.33,0.727,0.727,0,0,0-1.04.13,0.771,0.771,0,0,0,.12,1.07,49.163,49.163,0,0,0,8.85,5.66,0.721,0.721,0,0,0,.62,0,49.555,49.555,0,0,0,9.28-6.01,31.836,31.836,0,0,0,6.43-6.93,16.563,16.563,0,0,0,2.98-9.15C1149.02,1558.62,1143.94,1553.28,1137.7,1553.28Zm-5.4,16.25,0.25-.5a2.239,2.239,0,0,1,.35-0.41,2.15,2.15,0,0,1,2.08-.51,2.274,2.274,0,0,1,1.54,1.53l0.57,1.87a0.8,0.8,0,0,1-.47.99,0.734,0.734,0,0,1-.91-0.43l-0.44-1.43a0.744,0.744,0,0,0-.93-0.5,0.768,0.768,0,0,0-.49.95l0.45,1.47a4.706,4.706,0,0,1-2.34,5.6,9.1,9.1,0,0,1-1.25.51,8.545,8.545,0,0,1-10.47-5.58,9.029,9.029,0,0,1-.41-3.05,3.227,3.227,0,0,0-.87-2.31,3.821,3.821,0,0,1-.9-1.61,3.89,3.89,0,0,1,2.56-4.79,4.069,4.069,0,0,1,3.37.48,2.818,2.818,0,0,1,1.28,1.96,4.277,4.277,0,0,1,.01,1.07,6.623,6.623,0,0,0,.04,1.57c0.06,0.43-.02.51-0.52,0.97-0.14.12-.3,0.27-0.46,0.43l-0.01.01h0a1.457,1.457,0,0,0-.33,1.56,1.381,1.381,0,0,0,1.27.9l2.54,0.06a1.208,1.208,0,0,0,1.09-.67l1.07-2.16a0.719,0.719,0,0,1,.44-0.38,0.683,0.683,0,0,1,.56.04,0.754,0.754,0,0,1,.37.45,0.778,0.778,0,0,1-.04.58l-0.04.07a3.778,3.778,0,0,0-.31.64l-0.73,1.45a2.7,2.7,0,0,1-1.6,1.38,2.628,2.628,0,0,1-.84.12l-3.21-.07a0.766,0.766,0,0,0-.03,1.53l3.21,0.06a3.946,3.946,0,0,0,1.32-.19,4.256,4.256,0,0,0,1.92-1.29l0.52,1.73a0.744,0.744,0,0,0,.93.5,0.775,0.775,0,0,0,.49-0.96l-0.67-2.18A2.423,2.423,0,0,1,1132.3,1569.53Zm-6.52-1.01a3.081,3.081,0,0,0,.89-1.11,1.2,1.2,0,0,1,.72.14,1.294,1.294,0,0,1,.58.64l-0.31.62-2.15-.04C1125.6,1568.68,1125.69,1568.6,1125.78,1568.52Z" transform="translate(-1111.03 -1553.28)"/>
    </g>
  </g>
  <g id="Group-3" data-name="Group">
    <g id="Group-4" data-name="Group">
      <path id="Vector-2" data-name="Vector" class="cls-1" d="M1119.71,1578.63l-0.03-.02a0.714,0.714,0,0,0-1.04.05,0.779,0.779,0,0,0,.05,1.08l0.02,0.02a0.746,0.746,0,0,0,.5.19,0.711,0.711,0,0,0,.55-0.25A0.767,0.767,0,0,0,1119.71,1578.63Z" transform="translate(-1111.03 -1553.28)"/>
    </g>
  </g>
  <g id="Group-5" data-name="Group">
    <g id="Group-6" data-name="Group">
      <path id="Vector-3" data-name="Vector" class="cls-1" d="M1128.26,1555.04a10.877,10.877,0,0,0-5.92-1.76c-6.24,0-11.32,5.34-11.32,11.89,0,4.15,1.82,8.27,5.4,12.26a0.691,0.691,0,0,0,.54.25,0.738,0.738,0,0,0,.5-0.2,0.77,0.77,0,0,0,.05-1.08c-3.32-3.7-5-7.48-5-11.23a10.128,10.128,0,0,1,9.83-10.37,9.4,9.4,0,0,1,5.13,1.53,0.734,0.734,0,0,0,1.02-.24A0.766,0.766,0,0,0,1128.26,1555.04Z" transform="translate(-1111.03 -1553.28)"/>
    </g>
  </g>
  <g id="Group-7" data-name="Group">
    <g id="Group-8" data-name="Group">
      <path id="Vector-4" data-name="Vector" class="cls-1" d="M1137.7,1556.9a0.76,0.76,0,0,0,0,1.52h0.01a0.749,0.749,0,0,0,.74-0.76A0.758,0.758,0,0,0,1137.7,1556.9Z" transform="translate(-1111.03 -1553.28)"/>
    </g>
  </g>
  <g id="Group-9" data-name="Group">
    <g id="Group-10" data-name="Group">
      <path id="Vector-5" data-name="Vector" class="cls-1" d="M1144.15,1560.42a7.887,7.887,0,0,0-3.68-2.99,0.739,0.739,0,0,0-.96.43,0.782,0.782,0,0,0,.43.99,6.771,6.771,0,0,1,4.16,6.32,0.741,0.741,0,1,0,1.48,0A8.452,8.452,0,0,0,1144.15,1560.42Z" transform="translate(-1111.03 -1553.28)"/>
    </g>
  </g>
</svg>
