<svg id="maternity_1" data-name="maternity 1" xmlns="http://www.w3.org/2000/svg" width="22" height="38" viewBox="0 0 22 38">
  <defs>
    <style>
      .cls-1 {
        fill: #3232ac;
        fill-rule: evenodd;
      }
    </style>
  </defs>
  <g id="Group">
    <g id="Group-2" data-name="Group">
      <path id="Vector" class="cls-1" d="M1131.31,1937.02a2.472,2.472,0,0,0-1.34.4,2.447,2.447,0,0,0-1.34-.4,2.642,2.642,0,0,0-2.57,2.69c0,0.84.6,1.85,1.81,3.09a18.134,18.134,0,0,0,1.66,1.5,0.683,0.683,0,0,0,.44.16,0.664,0.664,0,0,0,.44-0.16,16.752,16.752,0,0,0,1.66-1.5c1.22-1.24,1.81-2.25,1.81-3.09A2.635,2.635,0,0,0,1131.31,1937.02Zm-1.34,5.74c-1.26-1.07-2.46-2.44-2.46-3.05a1.163,1.163,0,0,1,1.12-1.2,1.066,1.066,0,0,1,.81.37,0.729,0.729,0,0,0,.53.24,0.713,0.713,0,0,0,.53-0.24,1.082,1.082,0,0,1,.81-0.37,1.163,1.163,0,0,1,1.12,1.2C1132.43,1940.32,1131.23,1941.69,1129.97,1942.76Z" transform="translate(-1119.03 -1911.31)"/>
    </g>
  </g>
  <g id="Group-3" data-name="Group">
    <g id="Group-4" data-name="Group">
      <path id="Vector-2" data-name="Vector" class="cls-1" d="M1129.01,1931.32a1.93,1.93,0,0,0-1.57-.51,7.565,7.565,0,0,0-5.09,3.39,0.764,0.764,0,0,0,.25,1.02,0.713,0.713,0,0,0,.99-0.26,6.137,6.137,0,0,1,4.07-2.68,0.555,0.555,0,0,1,.41.17,1.285,1.285,0,0,1,.43.91,0.7,0.7,0,0,1-.46.66,5.873,5.873,0,0,0-2.76,1.63l-2.77,3.54a1.359,1.359,0,0,1-1.08.55,0.548,0.548,0,0,1-.41-0.19c-0.69-.78-0.56-3.33-0.5-4.41q0.015-.255.03-0.45c0.28-6.72,2.83-8.63,6.85-9.54l0.25-.05a0.754,0.754,0,0,0,.55-0.89,0.719,0.719,0,0,0-.86-0.56l-0.25.05a9.513,9.513,0,0,0-5.77,3.26c-1.37,1.77-2.07,4.2-2.22,7.66,0,0.13-.01.27-0.02,0.43-0.11,2.06-.15,4.36.87,5.5a1.941,1.941,0,0,0,1.43.67,0.277,0.277,0,0,0,.09.01c0.05,0,.1-0.01.15-0.01a8.428,8.428,0,0,0,.8,3.46,0.722,0.722,0,0,0,.65.42,0.756,0.756,0,0,0,.32-0.08,0.742,0.742,0,0,0,.33-0.99,6.9,6.9,0,0,1-.65-2.94v-0.41a3.764,3.764,0,0,0,.57-0.56l2.77-3.54a4.77,4.77,0,0,1,2.09-1.15,2.179,2.179,0,0,0,1.45-2.06A2.837,2.837,0,0,0,1129.01,1931.32Z" transform="translate(-1119.03 -1911.31)"/>
    </g>
  </g>
  <g id="Group-5" data-name="Group">
    <g id="Group-6" data-name="Group">
      <path id="Vector-3" data-name="Vector" class="cls-1" d="M1124.86,1945.72l-0.01-.02a0.719,0.719,0,0,0-1.03-.03,0.761,0.761,0,0,0-.03,1.05l0.03,0.03a0.714,0.714,0,0,0,.52.23,0.7,0.7,0,0,0,.5-0.21A0.752,0.752,0,0,0,1124.86,1945.72Z" transform="translate(-1119.03 -1911.31)"/>
    </g>
  </g>
  <g id="Group-7" data-name="Group">
    <g id="Group-8" data-name="Group">
      <path id="Vector-4" data-name="Vector" class="cls-1" d="M1136.4,1925.11a10.806,10.806,0,0,0-3.42-1.47,0.729,0.729,0,0,0-.87.56,0.739,0.739,0,0,0,.54.89,9.429,9.429,0,0,1,2.97,1.27,0.689,0.689,0,0,0,.39.12,0.72,0.72,0,0,0,.61-0.34A0.77,0.77,0,0,0,1136.4,1925.11Z" transform="translate(-1119.03 -1911.31)"/>
    </g>
  </g>
  <g id="Group-9" data-name="Group">
    <g id="Group-10" data-name="Group">
      <path id="Vector-5" data-name="Vector" class="cls-1" d="M1138.42,1926.82l-0.04-.04a0.715,0.715,0,0,0-1.02-.02,0.774,0.774,0,0,0-.02,1.06l0.04,0.03a0.714,0.714,0,0,0,.52.23,0.738,0.738,0,0,0,.5-0.2A0.764,0.764,0,0,0,1138.42,1926.82Z" transform="translate(-1119.03 -1911.31)"/>
    </g>
  </g>
  <g id="Group-11" data-name="Group">
    <g id="Group-12" data-name="Group">
      <path id="Vector-6" data-name="Vector" class="cls-1" d="M1140.04,1929.07a0.709,0.709,0,0,0-.98-0.29,0.771,0.771,0,0,0-.28,1.02,9.71,9.71,0,0,1,.79,4.78v2.26c0,2.61-.58,6.29-3.36,8.93a7.865,7.865,0,0,1-2.83,1.42,0.573,0.573,0,0,1-.14.04,1.106,1.106,0,0,1-.91-0.2,1.2,1.2,0,0,1-.47-0.96,1.173,1.173,0,0,1,.83-1.14,7.079,7.079,0,0,0,2.74-1.35c1.91-1.83,1.81-4.64,1.72-7.13-0.02-.54-0.03-1.04-0.03-1.54a0.772,0.772,0,0,0-.02-0.15,2.926,2.926,0,0,0,.3-0.89c0.22-1.38-.66-2.56-1.36-3.5a4.212,4.212,0,0,1-.71-1.13,0.72,0.72,0,1,0-1.44,0,3.679,3.679,0,0,0,1,2.04,3.7,3.7,0,0,1,1.08,2.35,2.512,2.512,0,0,1-1.2,1.49,0.748,0.748,0,0,0-.19,1.03,0.694,0.694,0,0,0,.6.33,0.66,0.66,0,0,0,.4-0.13,0.834,0.834,0,0,0,.12-0.08,1.7,1.7,0,0,0,.01.23c0.08,2.28.16,4.63-1.27,5.99a6.094,6.094,0,0,1-2.16,1.02,2.634,2.634,0,0,0-1.87,2.55,2.69,2.69,0,0,0,.54,1.64,10.183,10.183,0,0,1-1.33.12,6.521,6.521,0,0,1-3.06-.77,0.7,0.7,0,0,0-.97.31,0.748,0.748,0,0,0,.3,1,7.833,7.833,0,0,0,3.73.95,16.6,16.6,0,0,0,3.97-.64,0.833,0.833,0,0,0,.15-0.04,0.06,0.06,0,0,0,.04-0.01h0.01a0.035,0.035,0,0,0,.02-0.01,9.182,9.182,0,0,0,3.38-1.75c2.51-2.38,3.83-5.85,3.83-10.02v-2.26A11.067,11.067,0,0,0,1140.04,1929.07Z" transform="translate(-1119.03 -1911.31)"/>
    </g>
  </g>
  <g id="Group-13" data-name="Group">
    <g id="Group-14" data-name="Group">
      <path id="Vector-7" data-name="Vector" class="cls-1" d="M1129.98,1911.31a5.373,5.373,0,0,0-2.33.52,2.932,2.932,0,0,0-4.06.71,3.113,3.113,0,0,0,.62,4.27,0.864,0.864,0,0,0,.16.1v1.07a5.612,5.612,0,1,0,11.22,0v-0.91A5.693,5.693,0,0,0,1129.98,1911.31Zm-5.22,2.12a1.5,1.5,0,0,1,1.44-.62,5.8,5.8,0,0,0-1.52,2.37A1.574,1.574,0,0,1,1124.76,1913.43Zm5.22,8.83a4.208,4.208,0,0,1-4.14-3.8,8.784,8.784,0,0,0,5.01-1.85,5.894,5.894,0,0,0,3.27,1.81A4.205,4.205,0,0,1,1129.98,1922.26Zm1.56-7.19a0.728,0.728,0,0,0-.59-0.37,0.7,0.7,0,0,0-.62.3c-1.08,1.5-3.44,1.88-4.51,1.97a4.16,4.16,0,0,1,8.32-.06A4.135,4.135,0,0,1,1131.54,1915.07Z" transform="translate(-1119.03 -1911.31)"/>
    </g>
  </g>
</svg>
